<svg width="9" height="9" viewBox="0 0 9 9" fill="none" xmlns="http://www.w3.org/2000/svg">
<path d="M8.4375 8.5625C8.12656 8.5625 7.875 8.31094 7.875 8C7.875 7.07187 7.69375 6.17188 7.33438 5.32344C6.98868 4.50665 6.48835 3.76439 5.86094 3.1375C5.23474 2.50925 4.4923 2.0088 3.675 1.66406C2.82813 1.30625 1.92813 1.125 1 1.125C0.689063 1.125 0.4375 0.873437 0.4375 0.5625C0.4375 0.251563 0.689063 0 1 0C2.07969 0 3.12813 0.210938 4.11406 0.629687C5.06719 1.03125 5.92188 1.60938 6.65625 2.34375C7.39063 3.07812 7.96719 3.93438 8.37031 4.88594C8.7875 5.87188 8.99844 6.92031 8.99844 8C9 8.31094 8.74844 8.5625 8.4375 8.5625V8.5625Z" fill="#262626"/>
</svg>
