<svg width="12" height="14" viewBox="0 0 12 14" fill="none" xmlns="http://www.w3.org/2000/svg">
<path d="M11.4136 10.9312C11.1189 10.2331 10.6911 9.59891 10.1542 9.06406C9.61898 8.52767 8.98491 8.10001 8.28705 7.80469C8.2808 7.80156 8.27455 7.8 8.2683 7.79688C9.24174 7.09375 9.87455 5.94844 9.87455 4.65625C9.87455 2.51562 8.14018 0.78125 5.99955 0.78125C3.85893 0.78125 2.12455 2.51562 2.12455 4.65625C2.12455 5.94844 2.75736 7.09375 3.7308 7.79844C3.72455 7.80156 3.7183 7.80312 3.71205 7.80625C3.01205 8.10156 2.38393 8.525 1.84486 9.06563C1.30847 9.60089 0.880808 10.235 0.585488 10.9328C0.295367 11.616 0.138898 12.3485 0.124551 13.0906C0.124134 13.1073 0.127059 13.1239 0.133154 13.1394C0.139249 13.1549 0.14839 13.1691 0.160039 13.181C0.171688 13.193 0.185609 13.2025 0.200982 13.2089C0.216355 13.2154 0.232869 13.2188 0.249551 13.2188H1.18705C1.2558 13.2188 1.31049 13.1641 1.31205 13.0969C1.3433 11.8906 1.82768 10.7609 2.68393 9.90469C3.56986 9.01875 4.74643 8.53125 5.99955 8.53125C7.25268 8.53125 8.42924 9.01875 9.31518 9.90469C10.1714 10.7609 10.6558 11.8906 10.6871 13.0969C10.6886 13.1656 10.7433 13.2188 10.8121 13.2188H11.7496C11.7662 13.2188 11.7827 13.2154 11.7981 13.2089C11.8135 13.2025 11.8274 13.193 11.8391 13.181C11.8507 13.1691 11.8599 13.1549 11.8659 13.1394C11.872 13.1239 11.875 13.1073 11.8746 13.0906C11.8589 12.3438 11.7042 11.6172 11.4136 10.9312ZM5.99955 7.34375C5.28236 7.34375 4.60736 7.06406 4.09955 6.55625C3.59174 6.04844 3.31205 5.37344 3.31205 4.65625C3.31205 3.93906 3.59174 3.26406 4.09955 2.75625C4.60736 2.24844 5.28236 1.96875 5.99955 1.96875C6.71674 1.96875 7.39174 2.24844 7.89955 2.75625C8.40736 3.26406 8.68705 3.93906 8.68705 4.65625C8.68705 5.37344 8.40736 6.04844 7.89955 6.55625C7.39174 7.06406 6.71674 7.34375 5.99955 7.34375Z" fill="#262626"/>
</svg>
